<mxfile host="Electron" modified="2024-04-08T00:25:19.778Z" agent="Mozilla/5.0 (Windows NT 10.0; Win64; x64) AppleWebKit/537.36 (KHTML, like Gecko) draw.io/24.1.0 Chrome/120.0.6099.109 Electron/28.1.0 Safari/537.36" etag="0kuzAZydWSiuoZwxCTdj" version="24.1.0" type="device">
  <diagram name="Page-1" id="ofyEmlEkeae9t7jnFmv-">
    <mxGraphModel dx="1218" dy="1184" grid="1" gridSize="10" guides="1" tooltips="1" connect="1" arrows="1" fold="1" page="1" pageScale="1" pageWidth="850" pageHeight="1100" math="0" shadow="0">
      <root>
        <mxCell id="0" />
        <mxCell id="1" parent="0" />
        <mxCell id="3itjI7NJVfrLtGggN1Wv-6" style="edgeStyle=orthogonalEdgeStyle;rounded=0;orthogonalLoop=1;jettySize=auto;html=1;" edge="1" parent="1" source="3itjI7NJVfrLtGggN1Wv-1" target="3itjI7NJVfrLtGggN1Wv-2">
          <mxGeometry relative="1" as="geometry" />
        </mxCell>
        <mxCell id="3itjI7NJVfrLtGggN1Wv-1" value="Client" style="sketch=0;outlineConnect=0;fontColor=#232F3E;gradientColor=none;fillColor=#232F3D;strokeColor=none;dashed=0;verticalLabelPosition=bottom;verticalAlign=top;align=center;html=1;fontSize=12;fontStyle=0;aspect=fixed;pointerEvents=1;shape=mxgraph.aws4.client;" vertex="1" parent="1">
          <mxGeometry x="350" y="561" width="78" height="76" as="geometry" />
        </mxCell>
        <mxCell id="3itjI7NJVfrLtGggN1Wv-7" style="edgeStyle=orthogonalEdgeStyle;rounded=0;orthogonalLoop=1;jettySize=auto;html=1;" edge="1" parent="1" source="3itjI7NJVfrLtGggN1Wv-2" target="3itjI7NJVfrLtGggN1Wv-3">
          <mxGeometry relative="1" as="geometry">
            <Array as="points">
              <mxPoint x="570" y="470" />
            </Array>
          </mxGeometry>
        </mxCell>
        <mxCell id="3itjI7NJVfrLtGggN1Wv-8" style="edgeStyle=orthogonalEdgeStyle;rounded=0;orthogonalLoop=1;jettySize=auto;html=1;" edge="1" parent="1" source="3itjI7NJVfrLtGggN1Wv-2" target="3itjI7NJVfrLtGggN1Wv-5">
          <mxGeometry relative="1" as="geometry">
            <Array as="points">
              <mxPoint x="570" y="730" />
            </Array>
          </mxGeometry>
        </mxCell>
        <mxCell id="3itjI7NJVfrLtGggN1Wv-9" style="edgeStyle=orthogonalEdgeStyle;rounded=0;orthogonalLoop=1;jettySize=auto;html=1;" edge="1" parent="1" source="3itjI7NJVfrLtGggN1Wv-2" target="3itjI7NJVfrLtGggN1Wv-4">
          <mxGeometry relative="1" as="geometry" />
        </mxCell>
        <mxCell id="3itjI7NJVfrLtGggN1Wv-2" value="Load&lt;div&gt;Balancer&lt;/div&gt;" style="rhombus;whiteSpace=wrap;html=1;" vertex="1" parent="1">
          <mxGeometry x="530" y="559" width="80" height="80" as="geometry" />
        </mxCell>
        <mxCell id="3itjI7NJVfrLtGggN1Wv-3" value="Server 1" style="sketch=0;outlineConnect=0;fontColor=#232F3E;gradientColor=none;fillColor=#232F3D;strokeColor=none;dashed=0;verticalLabelPosition=bottom;verticalAlign=top;align=center;html=1;fontSize=12;fontStyle=0;aspect=fixed;pointerEvents=1;shape=mxgraph.aws4.traditional_server;" vertex="1" parent="1">
          <mxGeometry x="710" y="430" width="45" height="78" as="geometry" />
        </mxCell>
        <mxCell id="3itjI7NJVfrLtGggN1Wv-4" value="Server 2" style="sketch=0;outlineConnect=0;fontColor=#232F3E;gradientColor=none;fillColor=#232F3D;strokeColor=none;dashed=0;verticalLabelPosition=bottom;verticalAlign=top;align=center;html=1;fontSize=12;fontStyle=0;aspect=fixed;pointerEvents=1;shape=mxgraph.aws4.traditional_server;" vertex="1" parent="1">
          <mxGeometry x="710" y="560" width="45" height="78" as="geometry" />
        </mxCell>
        <mxCell id="3itjI7NJVfrLtGggN1Wv-5" value="Server 3" style="sketch=0;outlineConnect=0;fontColor=#232F3E;gradientColor=none;fillColor=#232F3D;strokeColor=none;dashed=0;verticalLabelPosition=bottom;verticalAlign=top;align=center;html=1;fontSize=12;fontStyle=0;aspect=fixed;pointerEvents=1;shape=mxgraph.aws4.traditional_server;" vertex="1" parent="1">
          <mxGeometry x="710" y="690" width="45" height="78" as="geometry" />
        </mxCell>
      </root>
    </mxGraphModel>
  </diagram>
</mxfile>
